{"glyphs":{":":{"x_min":0,"x_max":602,"ha":602,"o":"m 249 519 l 412 519 l 377 341 l 214 341 z m 183 179 l 346 179 l 312 0 l 149 0 z"},"$":{"x_min":0,"x_max":602,"ha":602,"o":"m 316 260 l 287 111 q 327 116 351 139 q 375 163 375 196 q 375 221 361 236 q 347 251 316 260 z m 274 401 l 300 537 q 265 532 244 510 q 224 488 224 455 q 224 435 237 421 q 250 407 274 401 z m 237 -147 l 168 -147 l 196 0 q 154 1 110 12 q 66 23 19 45 l 44 173 q 87 143 131 127 q 174 111 217 109 l 250 278 q 173 297 135 337 q 97 377 97 438 q 97 524 159 582 q 222 640 321 644 l 344 760 l 413 760 l 390 644 q 425 642 460 635 q 496 628 533 616 l 509 494 q 479 513 445 524 q 410 535 370 537 l 339 382 q 423 359 462 318 q 502 277 502 214 q 502 124 438 66 q 374 7 265 0 z"},"?":{"x_min":0,"x_max":602,"ha":602,"o":"m 169 138 l 299 138 l 272 0 l 142 0 z m 310 196 l 180 196 l 195 271 q 204 318 225 353 q 247 388 292 426 l 344 471 l 348 475 q 419 536 419 569 q 419 597 401 612 q 383 627 349 627 q 306 627 256 609 q 206 591 149 556 l 175 687 q 225 714 277 728 q 329 742 380 742 q 460 742 509 702 q 557 662 557 596 q 557 550 533 509 q 509 469 452 421 l 401 379 l 397 375 q 335 324 322 256 z"},"<":{"x_min":0,"x_max":602,"ha":602,"o":"m 559 452 l 171 313 l 559 175 l 559 53 l 43 256 l 43 371 l 559 574 z"},"'":{"x_min":0,"x_max":602,"ha":602,"o":"m 363 729 l 363 458 l 238 458 l 238 729 z"},"=":{"x_min":0,"x_max":602,"ha":602,"o":"m 43 260 l 559 260 l 559 144 l 43 144 z m 43 482 l 559 482 l 559 367 l 43 367 z"},"a":{"x_min":0,"x_max":602,"ha":602,"o":"m 337 259 q 253 259 212 233 q 172 208 172 155 q 172 124 192 104 q 211 84 242 84 q 300 84 339 129 q 378 175 392 259 z m 544 312 l 484 0 l 342 0 l 354 61 q 321 23 279 5 q 237 -14 183 -14 q 109 -14 66 29 q 23 71 23 144 q 23 249 99 304 q 175 360 318 360 l 412 360 l 416 384 q 417 387 417 389 q 417 392 417 398 q 417 426 392 440 q 367 455 320 455 q 280 455 229 441 q 179 427 121 400 l 144 522 q 199 541 248 551 q 297 560 342 560 q 448 560 502 523 q 557 486 557 414 q 557 395 554 369 q 550 343 544 312 z"},"L":{"x_min":0,"x_max":602,"ha":602,"o":"m 39 0 l 181 729 l 325 729 l 208 127 l 516 127 l 491 0 z"},"3":{"x_min":0,"x_max":602,"ha":602,"o":"m 251 326 l 174 326 l 199 453 l 276 453 q 336 453 374 480 q 412 507 412 549 q 412 583 384 602 q 356 620 304 620 q 264 620 215 610 q 167 600 113 580 l 139 711 q 190 727 237 734 q 284 742 327 742 q 427 742 487 695 q 547 647 547 570 q 547 501 501 454 q 455 407 373 393 q 438 375 471 335 q 503 295 503 231 q 503 119 423 52 q 343 -14 206 -14 q 156 -14 100 -5 q 44 4 -15 22 l 11 154 q 58 131 109 120 q 159 108 212 108 q 287 108 327 141 q 366 175 366 238 q 366 278 335 302 q 303 326 251 326 z"},";":{"x_min":0,"x_max":602,"ha":602,"o":"m 183 179 l 346 179 l 320 47 l 188 -140 l 83 -140 l 157 47 z m 249 519 l 412 519 l 377 341 l 214 341 z"},"J":{"x_min":0,"x_max":602,"ha":602,"o":"m -10 38 l 22 206 q 60 159 103 136 q 146 113 197 113 q 253 113 281 139 q 309 166 322 234 l 394 602 l 218 602 l 243 729 l 563 729 l 466 234 q 450 151 430 109 q 410 67 377 40 q 344 13 300 0 q 255 -14 200 -14 q 146 -14 94 -1 q 42 12 -10 38 z"},"V":{"x_min":0,"x_max":602,"ha":602,"o":"m 253 118 l 500 729 l 647 729 l 332 0 l 131 0 l 99 729 l 241 729 z"},"\"":{"x_min":0,"x_max":602,"ha":602,"o":"m 488 729 l 488 458 l 363 458 l 363 729 z m 238 729 l 238 458 l 113 458 l 113 729 z"},"7":{"x_min":0,"x_max":602,"ha":602,"o":"m 128 729 l 598 729 l 578 627 l 209 0 l 53 0 l 412 602 l 103 602 z"},"S":{"x_min":0,"x_max":602,"ha":602,"o":"m 247 324 q 153 363 123 400 q 93 437 93 498 q 93 605 172 674 q 250 742 376 742 q 426 742 474 732 q 521 722 566 702 l 538 563 q 505 593 460 609 q 416 624 362 624 q 304 624 268 596 q 232 569 232 526 q 232 485 322 444 l 325 443 l 382 418 q 453 386 486 342 q 519 297 519 232 q 519 120 440 53 q 362 -14 228 -14 q 174 -14 118 -1 q 62 11 2 37 l 31 186 q 78 146 130 126 q 182 105 234 105 q 299 105 336 134 q 373 162 373 211 q 373 241 356 263 q 339 286 305 300 z"},"}":{"x_min":0,"x_max":602,"ha":602,"o":"m 3 -70 l 63 -70 q 113 -70 135 -49 q 156 -28 170 42 l 189 142 q 205 222 235 256 q 266 290 329 299 q 283 307 263 327 q 242 348 242 386 q 242 399 244 416 q 246 434 250 454 l 270 556 q 274 580 276 593 q 278 606 278 614 q 278 643 262 655 q 246 667 206 667 l 147 667 l 165 760 l 237 760 q 337 760 377 736 q 417 713 417 657 q 417 640 407 587 l 406 580 l 386 475 q 383 459 381 445 q 379 431 379 421 q 379 379 402 362 q 425 345 482 345 l 512 345 l 494 252 l 464 252 q 395 252 363 224 q 331 195 317 122 l 297 17 q 276 -91 228 -127 q 179 -163 58 -163 l -15 -163 z"},"Z":{"x_min":0,"x_max":602,"ha":602,"o":"m 137 729 l 630 729 l 606 610 l 178 127 l 520 127 l 495 0 l -16 0 l 7 119 l 426 602 l 112 602 z"},"x":{"x_min":0,"x_max":602,"ha":602,"o":"m 599 547 l 366 277 l 502 0 l 356 0 l 273 174 l 125 0 l -37 0 l 213 290 l 87 547 l 234 547 l 306 392 l 437 547 z"},")":{"x_min":0,"x_max":602,"ha":602,"o":"m 55 -132 q 169 21 226 168 q 283 315 283 458 q 283 528 270 603 q 256 678 228 759 l 338 759 q 377 675 397 595 q 417 514 417 435 q 417 293 354 151 q 291 9 165 -132 z"},"&":{"x_min":0,"x_max":602,"ha":602,"o":"m 361 35 q 319 11 275 -2 q 231 -14 189 -14 q 95 -14 40 38 q -16 90 -16 176 q -16 255 32 325 q 80 395 171 446 q 158 474 152 499 q 146 523 146 546 q 146 635 211 689 q 277 742 388 742 q 422 742 455 737 q 488 731 520 721 l 496 596 q 470 613 438 623 q 407 632 375 632 q 332 632 309 615 q 286 597 286 565 q 286 548 295 520 q 305 492 324 449 l 432 215 q 453 243 464 281 q 476 318 478 364 l 593 364 q 587 287 558 226 q 529 165 476 120 l 532 0 l 378 0 z m 213 357 q 169 332 146 295 q 123 259 123 214 q 123 166 154 133 q 185 101 231 101 q 252 101 274 108 q 296 114 319 128 z"},"_":{"x_min":0,"x_max":602,"ha":602,"o":"m 602 -143 l 602 -236 l 0 -236 l 0 -143 z"},"v":{"x_min":0,"x_max":602,"ha":602,"o":"m 601 547 l 332 0 l 152 0 l 84 547 l 222 547 l 261 118 l 451 547 z"},"O":{"x_min":0,"x_max":602,"ha":602,"o":"m 424 498 q 424 557 404 586 q 385 615 345 615 q 316 615 292 598 q 268 581 250 547 q 239 528 229 496 q 218 465 207 420 q 193 364 186 315 q 178 267 178 230 q 178 171 198 143 q 217 114 257 114 q 286 114 310 131 q 334 148 352 182 q 363 204 374 236 q 385 268 395 308 q 409 364 417 413 q 424 461 424 498 z m 30 227 q 30 325 54 425 q 79 525 120 600 q 158 668 219 705 q 280 742 356 742 q 461 742 516 681 q 572 619 572 503 q 572 404 548 303 q 524 203 483 129 q 445 60 384 23 q 322 -14 246 -14 q 140 -14 85 48 q 30 109 30 227 z"},"(":{"x_min":0,"x_max":602,"ha":602,"o":"m 527 759 q 413 606 356 459 q 299 312 299 169 q 299 99 312 24 q 326 -51 354 -132 l 244 -132 q 204 -48 185 33 q 165 113 165 192 q 165 333 228 476 q 292 618 417 759 z"},"C":{"x_min":0,"x_max":602,"ha":602,"o":"m 462 21 q 424 3 385 -5 q 346 -14 304 -14 q 188 -14 126 53 q 64 120 64 247 q 64 359 98 463 q 133 566 192 633 q 239 687 303 714 q 366 742 441 742 q 481 742 519 733 q 558 725 595 707 l 564 547 q 540 580 504 597 q 469 614 426 614 q 387 614 349 590 q 312 566 285 525 q 251 473 231 399 q 210 326 210 260 q 210 188 241 151 q 271 113 329 113 q 369 113 408 129 q 447 146 493 181 z"},"W":{"x_min":0,"x_max":602,"ha":602,"o":"m 70 729 l 194 729 l 141 194 l 274 540 l 390 540 l 396 194 l 541 729 l 669 729 l 444 0 l 312 0 l 306 383 l 151 0 l 20 0 z"},"A":{"x_min":0,"x_max":602,"ha":602,"o":"m 350 595 l 221 299 l 360 299 z m 284 729 l 460 729 l 515 0 l 372 0 l 365 180 l 170 180 l 91 0 l -55 0 z"},"f":{"x_min":0,"x_max":602,"ha":602,"o":"m 418 584 l 410 547 l 578 547 l 557 437 l 389 437 l 304 0 l 161 0 l 246 437 l 113 437 l 134 547 l 267 547 l 275 585 q 295 688 340 724 q 385 760 502 760 l 619 760 l 598 650 l 486 650 q 454 650 440 636 q 426 623 418 584 z"},"Q":{"x_min":0,"x_max":602,"ha":602,"o":"m 261 -14 l 248 -14 q 142 -14 86 47 q 30 108 30 225 q 30 324 54 425 q 78 525 119 599 q 157 668 219 705 q 280 742 356 742 q 459 742 515 682 q 572 622 572 512 q 572 408 548 306 q 524 204 483 128 q 466 96 440 69 q 415 42 379 19 l 451 -72 l 348 -137 z m 424 498 q 424 557 404 586 q 385 615 345 615 q 316 615 292 598 q 268 581 250 547 q 239 528 229 496 q 218 465 207 420 q 193 364 186 315 q 178 267 178 230 q 178 171 198 143 q 217 114 257 114 q 286 114 310 131 q 334 148 352 182 q 363 204 374 236 q 385 268 395 308 q 409 364 417 413 q 424 461 424 498 z"},"w":{"x_min":0,"x_max":602,"ha":602,"o":"m 47 547 l 164 547 l 148 128 l 259 404 l 371 404 l 382 128 l 524 547 l 647 547 l 443 0 l 306 0 l 297 288 l 180 0 l 44 0 z"},"-":{"x_min":0,"x_max":602,"ha":602,"o":"m 146 359 l 453 359 l 426 217 l 119 217 z"},"E":{"x_min":0,"x_max":602,"ha":602,"o":"m 468 0 l 14 0 l 155 729 l 610 729 l 585 602 l 275 602 l 244 445 l 525 445 l 501 318 l 220 318 l 183 127 l 493 127 z"},"s":{"x_min":0,"x_max":602,"ha":602,"o":"m 534 530 l 510 406 q 473 432 431 445 q 388 458 343 458 q 297 458 270 441 q 243 424 243 395 q 243 373 261 360 q 279 346 342 328 l 378 318 q 440 300 469 266 q 498 231 498 176 q 498 87 431 36 q 364 -14 244 -14 q 193 -14 143 -6 q 92 3 44 20 l 69 145 q 111 118 157 103 q 204 89 249 89 q 303 89 333 107 q 363 125 363 158 q 363 181 348 193 q 333 206 268 225 l 225 237 q 166 254 138 288 q 110 322 110 377 q 110 459 176 510 q 243 560 353 560 q 398 560 444 552 q 489 545 534 530 z"},">":{"x_min":0,"x_max":602,"ha":602,"o":"m 43 452 l 43 574 l 559 371 l 559 256 l 43 53 l 43 175 l 431 313 z"},"l":{"x_min":0,"x_max":602,"ha":602,"o":"m 305 178 q 303 168 302 160 q 301 152 301 150 q 301 128 316 119 q 331 110 369 110 l 505 110 l 483 0 l 338 0 q 238 0 196 27 q 155 55 155 118 q 155 129 157 146 q 160 164 164 185 l 263 650 l 114 650 l 135 760 l 427 760 z"},"8":{"x_min":0,"x_max":602,"ha":602,"o":"m 380 233 q 380 276 354 301 q 328 326 283 326 q 229 326 194 289 q 159 252 159 195 q 159 153 186 127 q 213 102 258 102 q 311 102 345 139 q 380 176 380 233 z m 212 390 q 161 403 135 438 q 109 472 109 526 q 109 615 181 679 q 253 742 357 742 q 445 742 500 694 q 555 646 555 568 q 555 496 512 446 q 468 396 395 384 q 448 370 478 328 q 508 287 508 227 q 508 120 435 53 q 363 -14 246 -14 q 144 -14 87 34 q 31 83 31 171 q 31 253 79 312 q 127 370 212 390 z m 237 522 q 237 486 259 464 q 281 441 316 441 q 365 441 397 470 q 428 500 428 545 q 428 583 406 605 q 383 627 343 627 q 298 627 267 597 q 237 566 237 522 z"},"\\":{"x_min":0,"x_max":602,"ha":602,"o":"m 265 729 l 362 -93 l 263 -93 l 166 729 z"},"e":{"x_min":0,"x_max":602,"ha":602,"o":"m 485 27 q 438 6 388 -4 q 338 -14 284 -14 q 163 -14 100 44 q 37 102 37 213 q 37 282 59 346 q 80 411 119 458 q 160 508 217 534 q 273 561 339 561 q 441 561 502 502 q 564 444 564 347 q 564 325 561 296 q 558 268 551 227 l 180 227 q 179 219 178 211 q 177 204 177 197 q 177 148 209 124 q 242 99 306 99 q 359 99 412 114 q 464 129 510 158 z m 428 334 q 430 341 430 347 q 431 354 431 360 q 431 401 406 425 q 381 449 338 449 q 289 449 254 420 q 220 392 200 334 z"},"b":{"x_min":0,"x_max":602,"ha":602,"o":"m 293 102 q 347 102 386 171 q 425 240 425 339 q 425 388 405 416 q 384 443 348 443 q 292 443 252 375 q 212 308 212 211 q 212 160 234 131 q 256 102 293 102 z m 186 101 l 166 0 l 23 0 l 171 760 l 314 760 l 256 465 q 287 512 327 536 q 368 560 414 560 q 485 560 527 507 q 569 453 569 361 q 569 297 554 234 q 539 170 512 119 q 479 56 427 21 q 376 -14 319 -14 q 265 -14 229 16 q 194 47 186 101 z"},"%":{"x_min":0,"x_max":602,"ha":602,"o":"m 16 543 q 16 608 62 654 q 107 699 172 699 q 237 699 282 654 q 328 608 328 543 q 328 478 282 433 q 237 387 172 387 q 107 387 62 432 q 16 478 16 543 z m 172 610 q 144 610 125 591 q 105 571 105 543 q 105 515 125 495 q 144 476 172 476 q 200 476 219 495 q 239 515 239 543 q 239 571 219 590 q 200 610 172 610 z m 42 274 l 551 478 l 571 431 l 59 227 z m 283 156 q 283 221 328 267 q 374 312 439 312 q 503 312 549 266 q 595 221 595 156 q 595 91 549 46 q 503 0 439 0 q 374 0 328 45 q 283 90 283 156 z m 438 223 q 411 223 391 204 q 372 184 372 156 q 372 127 391 108 q 410 89 438 89 q 466 89 486 108 q 506 128 506 156 q 506 184 486 203 q 466 223 438 223 z"},"m":{"x_min":0,"x_max":602,"ha":602,"o":"m 376 492 q 392 523 423 542 q 454 560 491 560 q 536 560 562 533 q 589 505 589 458 q 589 435 586 411 q 583 388 576 351 l 508 0 l 391 0 l 459 351 q 464 376 466 391 q 468 406 468 413 q 468 433 459 443 q 451 453 434 453 q 411 453 397 431 q 383 409 372 351 l 304 0 l 187 0 l 256 351 q 260 372 262 388 q 264 404 264 413 q 264 433 255 443 q 247 453 230 453 q 207 453 194 432 q 180 411 169 351 l 101 0 l -16 0 l 90 547 l 194 547 l 183 490 q 203 523 233 542 q 262 560 296 560 q 330 560 351 542 q 372 523 376 492 z"},"#":{"x_min":0,"x_max":602,"ha":602,"o":"m 367 430 l 268 430 l 232 287 l 331 287 z m 340 718 l 294 535 l 394 535 l 440 718 l 548 718 l 502 535 l 619 535 l 593 430 l 475 430 l 440 287 l 557 287 l 531 182 l 413 182 l 367 0 l 259 0 l 305 182 l 205 182 l 159 0 l 51 0 l 97 182 l -20 182 l 6 287 l 124 287 l 159 430 l 42 430 l 68 535 l 186 535 l 232 718 z"},",":{"x_min":0,"x_max":602,"ha":602,"o":"m 212 179 l 365 179 l 339 47 l 207 -140 l 102 -140 l 186 47 z"},"n":{"x_min":0,"x_max":602,"ha":602,"o":"m 538 355 l 469 0 l 326 0 l 391 333 q 394 346 395 359 q 396 372 396 385 q 396 413 382 428 q 368 443 341 443 q 301 443 272 408 q 244 373 231 307 l 172 0 l 29 0 l 135 547 l 278 547 l 262 465 q 286 510 327 535 q 368 560 417 560 q 479 560 513 526 q 547 492 547 430 q 547 416 545 397 q 542 378 538 355 z"},"h":{"x_min":0,"x_max":602,"ha":602,"o":"m 538 355 l 469 0 l 326 0 l 391 333 q 394 346 395 359 q 396 372 396 385 q 396 413 382 428 q 368 443 341 443 q 300 443 272 408 q 244 373 231 307 l 172 0 l 29 0 l 177 760 l 319 760 l 262 465 q 286 510 327 535 q 368 560 417 560 q 479 560 513 526 q 547 492 547 430 q 547 416 545 397 q 542 378 538 355 z"},"z":{"x_min":0,"x_max":602,"ha":602,"o":"m 143 547 l 580 547 l 558 435 l 213 107 l 494 107 l 473 0 l 24 0 l 46 112 l 391 440 l 122 440 z"},"B":{"x_min":0,"x_max":602,"ha":602,"o":"m 194 331 l 152 115 l 248 115 q 324 115 360 148 q 396 180 396 249 q 396 291 370 311 q 344 331 290 331 z m 249 615 l 216 446 l 312 446 q 371 446 401 472 q 431 499 431 551 q 431 584 410 600 q 389 615 345 615 z m 132 730 l 367 730 q 470 730 523 689 q 575 649 575 569 q 575 490 529 442 q 482 394 397 384 q 465 378 502 339 q 540 301 540 237 q 540 184 521 138 q 503 93 469 62 q 433 29 376 15 q 320 0 225 0 l -10 0 z"},"K":{"x_min":0,"x_max":602,"ha":602,"o":"m 132 729 l 276 729 l 223 457 l 498 729 l 668 729 l 372 434 l 537 0 l 389 0 l 265 327 l 181 244 l 135 0 l -9 0 z"},"R":{"x_min":0,"x_max":602,"ha":602,"o":"m 385 344 q 415 340 431 322 q 448 305 461 262 l 541 0 l 394 0 l 342 184 q 341 188 338 197 q 312 288 261 288 l 204 288 l 148 0 l 4 0 l 146 729 l 346 729 q 459 729 514 686 q 569 644 569 555 q 569 464 521 409 q 473 354 385 344 z m 267 608 l 228 409 l 288 409 q 354 409 388 440 q 422 472 422 532 q 422 570 399 589 q 377 608 332 608 z"},"T":{"x_min":0,"x_max":602,"ha":602,"o":"m 302 0 l 158 0 l 275 603 l 88 603 l 112 729 l 629 729 l 604 603 l 419 603 z"},"P":{"x_min":0,"x_max":602,"ha":602,"o":"m 270 608 l 229 394 l 299 394 q 370 394 406 427 q 441 460 441 526 q 441 570 416 589 q 390 608 329 608 z m 150 729 l 355 729 q 470 729 531 684 q 591 640 591 554 q 591 499 573 444 q 555 389 527 357 q 489 312 432 293 q 375 273 285 273 l 205 273 l 152 0 l 8 0 z"},"|":{"x_min":0,"x_max":602,"ha":602,"o":"m 356 764 l 356 -236 l 245 -236 l 245 764 z"},"t":{"x_min":0,"x_max":602,"ha":602,"o":"m 414 702 l 384 547 l 571 547 l 550 437 l 363 437 l 312 178 q 310 168 309 161 q 308 154 308 150 q 308 128 323 119 q 337 110 376 110 l 486 110 l 465 0 l 345 0 q 246 0 204 27 q 162 54 162 117 q 162 127 164 144 q 167 161 171 185 l 220 437 l 80 437 l 101 547 l 241 547 l 271 702 z"},"M":{"x_min":0,"x_max":602,"ha":602,"o":"m 113 729 l 285 729 l 309 409 l 454 729 l 630 729 l 489 0 l 365 0 l 481 585 l 338 265 l 231 265 l 208 585 l 95 0 l -28 0 z"},"g":{"x_min":0,"x_max":602,"ha":602,"o":"m 254 120 q 310 120 351 185 q 392 250 392 341 q 392 390 372 417 q 352 444 317 444 q 261 444 220 379 q 179 314 179 224 q 179 174 199 147 q 218 120 254 120 z m 482 41 q 456 -94 389 -151 q 321 -207 188 -207 q 140 -207 96 -200 q 51 -192 9 -178 l 35 -49 q 72 -71 112 -82 q 152 -93 195 -93 q 256 -93 290 -64 q 325 -36 336 25 l 349 90 q 323 49 285 29 q 247 8 200 8 q 124 8 78 59 q 33 110 33 197 q 33 265 54 333 q 74 402 110 455 q 144 505 193 534 q 242 562 294 562 q 345 562 378 535 q 411 508 421 458 l 438 547 l 581 547 z"},"j":{"x_min":0,"x_max":602,"ha":602,"o":"m 358 21 q 342 -61 327 -95 q 312 -130 289 -153 q 260 -182 221 -194 q 181 -207 119 -207 l -31 -207 l -9 -97 l 104 -97 q 153 -97 178 -71 q 203 -45 215 21 l 296 437 l 151 437 l 172 547 l 460 547 z m 480 646 l 337 646 l 369 813 l 512 813 z"},"i":{"x_min":0,"x_max":602,"ha":602,"o":"m 151 547 l 434 547 l 349 110 l 527 110 l 506 0 l 7 0 l 28 110 l 206 110 l 270 437 l 130 437 z m 343 813 l 486 813 l 453 646 l 310 646 z"},"y":{"x_min":0,"x_max":602,"ha":602,"o":"m 269 -59 q 214 -156 175 -181 q 135 -207 73 -207 l -44 -207 l -22 -98 l 35 -98 q 78 -98 102 -83 q 126 -69 156 -14 l 175 22 l 69 547 l 214 547 l 276 205 l 463 547 l 614 547 z"},"@":{"x_min":0,"x_max":602,"ha":602,"o":"m 353 147 q 404 147 438 192 q 473 236 473 303 q 473 341 453 362 q 434 384 399 384 q 349 384 314 340 q 279 296 279 233 q 279 192 298 170 q 318 147 353 147 z m 521 66 l 425 66 l 433 106 q 412 82 384 69 q 356 56 327 56 q 259 56 220 99 q 181 142 181 217 q 181 325 243 400 q 306 475 395 475 q 430 475 456 463 q 481 451 495 428 q 500 445 502 461 q 504 478 504 492 q 504 537 474 563 q 443 589 392 589 q 332 589 276 558 q 221 527 178 469 q 134 409 110 337 q 87 265 87 189 q 87 72 145 4 q 202 -64 300 -64 q 338 -64 378 -52 q 417 -41 457 -17 l 488 -102 q 436 -130 389 -143 q 342 -156 296 -156 q 157 -156 75 -62 q -7 31 -7 189 q -7 269 15 346 q 36 423 77 490 q 134 581 216 631 q 298 681 390 681 q 485 681 542 631 q 600 581 600 499 q 600 484 598 469 q 597 453 593 436 z"},".":{"x_min":0,"x_max":602,"ha":602,"o":"m 204 179 l 367 179 l 333 0 l 170 0 z"},"p":{"x_min":0,"x_max":602,"ha":602,"o":"m 185 101 l 125 -208 l -18 -208 l 129 547 l 272 547 l 256 465 q 291 513 331 536 q 371 560 416 560 q 488 560 529 507 q 571 453 571 361 q 571 298 556 234 q 541 171 513 119 q 479 56 428 21 q 377 -14 320 -14 q 265 -14 230 16 q 195 46 185 101 z m 294 102 q 348 102 387 171 q 427 241 427 339 q 427 388 406 416 q 386 443 350 443 q 294 443 254 375 q 213 308 213 211 q 213 160 235 131 q 257 102 294 102 z"},"X":{"x_min":0,"x_max":602,"ha":602,"o":"m 523 0 l 381 0 l 283 250 l 88 0 l -70 0 l 230 382 l 90 729 l 232 729 l 323 503 l 499 729 l 656 729 l 376 369 z"},"*":{"x_min":0,"x_max":602,"ha":602,"o":"m 541 594 l 380 510 l 541 425 l 504 356 l 342 446 l 342 278 l 258 278 l 258 446 l 96 356 l 59 425 l 221 510 l 59 594 l 96 663 l 258 574 l 258 742 l 342 742 l 342 574 l 504 663 z"},"Y":{"x_min":0,"x_max":602,"ha":602,"o":"m 71 729 l 214 729 l 305 412 l 506 729 l 663 729 l 354 287 l 298 0 l 155 0 l 211 287 z"},"c":{"x_min":0,"x_max":602,"ha":602,"o":"m 467 18 q 429 2 389 -6 q 350 -14 309 -14 q 199 -14 136 46 q 73 107 73 212 q 73 367 163 463 q 252 560 397 560 q 445 560 486 550 q 528 540 565 519 l 539 388 q 509 417 476 430 q 443 444 405 444 q 322 444 270 383 q 218 323 218 226 q 218 164 248 133 q 277 102 338 102 q 372 102 411 115 q 450 127 494 153 z"},"!":{"x_min":0,"x_max":602,"ha":602,"o":"m 192 138 l 322 138 l 295 0 l 165 0 z m 307 729 l 437 729 l 375 409 l 325 235 l 228 235 l 244 409 z"},"/":{"x_min":0,"x_max":602,"ha":602,"o":"m 416 729 l 525 729 l 108 -93 l 0 -93 z"},"[":{"x_min":0,"x_max":602,"ha":602,"o":"m 283 760 l 531 760 l 512 667 l 394 667 l 257 -39 l 375 -39 l 357 -132 l 109 -132 z"},"6":{"x_min":0,"x_max":602,"ha":602,"o":"m 392 272 q 392 315 370 340 q 348 365 310 365 q 259 365 223 316 q 187 268 187 196 q 187 153 209 127 q 231 101 268 101 q 321 101 356 150 q 392 199 392 272 z m 571 712 l 546 581 q 517 603 482 614 q 448 625 413 625 q 336 625 285 572 q 233 519 210 417 q 239 449 276 465 q 313 481 357 481 q 438 481 486 427 q 533 372 533 278 q 533 151 458 68 q 383 -16 269 -16 q 158 -16 103 45 q 47 106 47 229 q 47 335 76 435 q 106 535 159 609 q 207 675 275 708 q 343 741 433 741 q 466 741 500 734 q 534 727 571 712 z"},"r":{"x_min":0,"x_max":602,"ha":602,"o":"m 573 398 q 550 419 521 429 q 492 439 456 439 q 375 439 331 396 q 288 353 268 252 l 219 0 l 75 0 l 182 547 l 325 547 l 308 462 q 338 509 387 534 q 435 560 493 560 q 523 560 551 553 q 578 545 599 532 z"},"2":{"x_min":0,"x_max":602,"ha":602,"o":"m 173 127 l 474 127 l 449 0 l -14 0 l 10 123 l 145 244 q 170 267 216 307 q 412 479 412 554 q 412 589 385 609 q 357 629 309 629 q 269 629 218 615 q 167 600 110 572 l 135 702 q 188 722 240 732 q 292 742 342 742 q 436 742 495 696 q 554 649 554 576 q 554 455 333 265 l 313 248 z"},"{":{"x_min":0,"x_max":602,"ha":602,"o":"m 429 -70 l 411 -163 l 339 -163 q 243 -163 202 -136 q 161 -110 161 -49 q 161 -38 163 -24 q 165 -10 170 17 l 191 122 q 195 146 197 160 q 199 175 199 185 q 199 222 176 237 q 152 252 94 252 l 64 252 l 82 345 l 112 345 q 182 345 213 372 q 244 399 259 475 l 279 580 q 300 689 345 725 q 391 760 518 760 l 591 760 l 573 667 l 513 667 q 462 667 441 646 q 419 625 406 556 l 387 454 q 372 373 341 340 q 311 307 247 299 q 293 289 314 267 q 334 246 334 209 q 334 195 332 178 q 330 161 326 142 l 306 42 q 302 20 300 6 q 298 -8 298 -16 q 298 -45 314 -57 q 331 -70 370 -70 z"},"9":{"x_min":0,"x_max":602,"ha":602,"o":"m 27 14 l 52 145 q 82 124 116 112 q 150 101 185 101 q 261 101 313 154 q 365 207 388 309 q 358 277 321 261 q 284 245 241 245 q 160 245 113 299 q 66 354 66 448 q 66 575 141 658 q 215 742 329 742 q 440 742 495 681 q 551 619 551 497 q 551 391 521 290 q 492 189 439 116 q 392 50 324 17 q 256 -15 165 -15 q 132 -15 98 -8 q 64 0 27 14 z m 207 453 q 207 410 229 385 q 250 361 288 361 q 339 361 375 410 q 411 458 411 530 q 411 573 389 599 q 367 625 330 625 q 277 625 242 576 q 207 526 207 453 z"}," ":{"x_min":0,"x_max":602,"ha":602,"o":""},"I":{"x_min":0,"x_max":602,"ha":602,"o":"m 130 602 l 155 729 l 589 729 l 564 602 l 419 602 l 327 127 l 472 127 l 447 0 l 13 0 l 38 127 l 183 127 l 275 602 z"},"H":{"x_min":0,"x_max":602,"ha":602,"o":"m 138 729 l 282 729 l 228 451 l 408 451 l 462 729 l 606 729 l 464 0 l 320 0 l 383 324 l 203 324 l 140 0 l -4 0 z"},"4":{"x_min":0,"x_max":602,"ha":602,"o":"m 377 563 l 141 281 l 323 281 z m 396 729 l 547 729 l 460 281 l 540 281 l 516 157 l 436 157 l 406 0 l 268 0 l 299 157 l 9 157 l 37 297 z"},"~":{"x_min":0,"x_max":602,"ha":602,"o":"m 559 396 l 559 282 q 522 253 488 240 q 453 226 414 226 q 370 226 315 251 q 304 256 299 258 q 261 274 236 280 q 211 286 186 286 q 148 286 114 272 q 79 258 43 227 l 43 339 q 81 369 117 382 q 152 395 193 395 q 219 395 243 390 q 268 384 304 369 q 309 367 320 362 q 376 335 422 335 q 456 335 490 350 q 523 365 559 396 z"},"D":{"x_min":0,"x_max":602,"ha":602,"o":"m 256 599 l 165 130 l 212 130 q 267 130 304 151 q 342 173 363 216 q 388 268 404 339 q 420 411 420 472 q 420 537 389 568 q 359 599 296 599 z m 138 729 l 292 729 q 431 729 500 669 q 569 609 569 488 q 569 445 562 397 q 556 349 542 294 q 524 220 499 169 q 473 118 438 84 q 392 39 328 20 q 264 0 157 0 l -4 0 z"},"^":{"x_min":0,"x_max":602,"ha":602,"o":"m 361 729 l 574 457 l 456 457 l 301 604 l 146 457 l 28 457 l 241 729 z"},"0":{"x_min":0,"x_max":602,"ha":602,"o":"m 239 364 q 239 390 257 407 q 274 425 300 425 q 326 425 344 407 q 362 389 362 364 q 362 339 344 321 q 326 303 300 303 q 274 303 257 321 q 239 338 239 364 z m 187 215 q 187 160 204 133 q 220 107 255 107 q 286 107 312 133 q 338 159 356 207 q 382 281 398 366 q 414 451 414 513 q 414 569 398 595 q 382 621 347 621 q 314 621 289 596 q 263 570 245 521 q 219 448 203 363 q 187 278 187 215 z m 558 523 q 558 419 533 312 q 508 205 467 127 q 431 60 372 23 q 313 -14 243 -14 q 149 -14 96 43 q 44 101 44 205 q 44 308 69 416 q 93 524 134 600 q 170 667 229 705 q 288 742 358 742 q 452 742 505 684 q 558 626 558 523 z"},"F":{"x_min":0,"x_max":602,"ha":602,"o":"m 594 602 l 284 602 l 254 445 l 536 445 l 511 318 l 229 318 l 167 0 l 23 0 l 165 729 l 619 729 z"},"`":{"x_min":0,"x_max":602,"ha":602,"o":"m 320 800 l 422 616 l 325 616 l 181 800 z"},"k":{"x_min":0,"x_max":602,"ha":602,"o":"m 187 760 l 330 760 l 256 378 l 453 547 l 634 547 l 387 343 l 540 0 l 388 0 l 280 256 l 223 209 l 183 0 l 40 0 z"},"u":{"x_min":0,"x_max":602,"ha":602,"o":"m 60 191 l 130 547 l 272 547 l 208 213 q 206 200 204 187 q 203 174 203 162 q 203 134 217 118 q 231 103 258 103 q 298 103 326 137 q 354 171 367 239 l 427 547 l 569 547 l 463 0 l 320 0 l 336 81 q 314 37 273 11 q 231 -14 182 -14 q 119 -14 85 20 q 52 55 52 119 q 52 133 54 150 q 56 168 60 191 z"},"]":{"x_min":0,"x_max":602,"ha":602,"o":"m 299 -132 l 52 -132 l 70 -39 l 188 -39 l 325 667 l 207 667 l 225 760 l 473 760 z"},"U":{"x_min":0,"x_max":602,"ha":602,"o":"m 33 269 l 123 729 l 267 729 l 170 233 q 170 232 169 230 q 166 207 166 197 q 166 157 188 135 q 211 113 252 113 q 305 113 336 143 q 368 172 380 233 l 477 729 l 621 729 l 531 269 q 514 181 494 136 q 475 91 444 60 q 407 24 356 5 q 305 -14 244 -14 q 137 -14 80 34 q 22 83 22 172 q 22 192 25 217 q 27 241 33 269 z"},"o":{"x_min":0,"x_max":602,"ha":602,"o":"m 415 334 q 415 387 392 416 q 370 445 328 445 q 268 445 228 378 q 187 312 187 212 q 187 160 211 131 q 234 101 275 101 q 334 101 375 168 q 415 234 415 334 z m 43 208 q 43 365 124 463 q 206 561 336 561 q 441 561 500 502 q 559 443 559 339 q 559 181 478 83 q 396 -14 266 -14 q 161 -14 102 45 q 43 104 43 208 z"},"N":{"x_min":0,"x_max":602,"ha":602,"o":"m 130 729 l 278 729 l 383 199 l 486 729 l 613 729 l 472 0 l 329 0 l 219 530 l 116 0 l -12 0 z"},"+":{"x_min":0,"x_max":602,"ha":602,"o":"m 359 582 l 359 372 l 569 372 l 569 256 l 359 256 l 359 45 l 243 45 l 243 256 l 32 256 l 32 372 l 243 372 l 243 582 z"},"G":{"x_min":0,"x_max":602,"ha":602,"o":"m 484 46 q 450 17 402 1 q 354 -14 298 -14 q 180 -14 115 57 q 50 127 50 256 q 50 361 85 463 q 121 566 179 632 q 227 686 291 714 q 354 742 428 742 q 468 742 506 733 q 544 725 582 707 l 550 547 q 525 580 491 597 q 458 614 418 614 q 383 614 352 599 q 320 585 295 557 q 275 534 258 503 q 241 473 229 435 q 213 387 205 343 q 197 298 197 260 q 197 189 228 151 q 259 113 316 113 q 333 113 349 117 q 364 121 376 129 l 404 271 l 303 271 l 327 392 l 552 392 z"},"q":{"x_min":0,"x_max":602,"ha":602,"o":"m 417 445 l 436 547 l 579 547 l 432 -208 l 290 -208 l 346 81 q 315 35 275 10 q 234 -14 188 -14 q 117 -14 75 40 q 33 93 33 186 q 33 249 48 312 q 63 375 91 427 q 125 490 176 526 q 227 561 283 561 q 337 561 373 531 q 408 500 417 445 z m 309 444 q 255 444 216 375 q 177 306 177 207 q 177 158 197 131 q 218 103 254 103 q 310 103 350 171 q 390 238 390 335 q 390 386 368 415 q 346 444 309 444 z"},"d":{"x_min":0,"x_max":602,"ha":602,"o":"m 309 444 q 255 444 216 375 q 177 306 177 207 q 177 158 197 130 q 217 103 253 103 q 309 103 349 171 q 390 238 390 335 q 390 386 368 415 q 346 444 309 444 z m 417 445 l 478 760 l 621 760 l 473 0 l 331 0 l 346 81 q 314 34 274 10 q 233 -14 187 -14 q 116 -14 74 40 q 32 93 32 186 q 32 249 47 312 q 62 375 90 427 q 124 490 175 525 q 226 561 283 561 q 338 561 374 530 q 410 499 417 445 z"},"1":{"x_min":0,"x_max":602,"ha":602,"o":"m 46 127 l 207 127 l 299 600 l 142 563 l 167 693 l 326 729 l 464 729 l 347 127 l 498 127 l 473 0 l 21 0 z"},"5":{"x_min":0,"x_max":602,"ha":602,"o":"m 166 729 l 562 729 l 537 602 l 258 602 l 232 467 q 248 473 266 476 q 283 479 303 479 q 399 479 456 422 q 513 365 513 269 q 513 139 426 62 q 339 -14 189 -14 q 143 -14 96 -6 q 49 1 3 17 l 28 147 q 62 127 104 117 q 146 107 192 107 q 276 107 324 146 q 373 184 373 250 q 373 301 338 330 q 304 360 244 360 q 206 360 166 350 q 125 340 87 322 z"}}}
